<?xml version="1.0" encoding="UTF-8"?>
<!DOCTYPE svg PUBLIC "-//W3C//DTD SVG 1.1//EN" "http://www.w3.org/Graphics/SVG/1.1/DTD/svg11.dtd">
<!-- Creator: CorelDRAW -->
<svg xmlns="http://www.w3.org/2000/svg" xml:space="preserve" width="210mm" height="297mm" version="1.1" style="shape-rendering:geometricPrecision; text-rendering:geometricPrecision; image-rendering:optimizeQuality; fill-rule:evenodd; clip-rule:evenodd"
viewBox="0 0 21000 29700"
 xmlns:xlink="http://www.w3.org/1999/xlink"
 xmlns:xodm="http://www.corel.com/coreldraw/odm/2003">
 <defs>
  <style type="text/css">
   <![CDATA[
    .fil0 {fill:black;fill-rule:nonzero}
    .fil1 {fill:#201E1E;fill-rule:nonzero}
   ]]>
  </style>
 </defs>
 <g id="Camada_x0020_1">
  <metadata id="CorelCorpID_0Corel-Layer"/>
  <path class="fil0" d="M18315.26 18037.57c-100.54,13.76 -186.09,-21.52 -256.64,-105.84 -70.01,-82.78 -115.25,-183.73 -130.43,-291.02 -4.76,-32.25 -7.2,-64.94 -7.2,-97.54 0,-79.76 14.39,-159.11 42.36,-233.75 40.56,-111.12 129.24,-198.08 241.07,-236.52 147.45,-46.57 263.15,-26.46 347.12,60.32 84.33,89.02 135.8,204.43 145.51,326.72 2.27,22.2 3.46,44.71 3.46,67.07 0,108.28 -27.05,215.13 -78.6,310.28 -58.87,116.85 -176.01,193.35 -306.67,200.26l0.02 0.02zm1286.67 -5891.74c45.03,-44.92 106.09,-70.2 169.71,-70.2 2.14,0 4.4,0.06 6.51,0.09 1.93,0 4.05,-0.05 6.06,-0.05 63.79,0 126.97,13.8 184.95,40.26 55.93,26.08 103.13,68.08 135.49,120.65 21.06,33.65 32.25,72.59 32.25,112.31 0,23.26 -3.85,46.41 -11.34,68.4 -26.65,100.54 -70.13,246.33 -130.46,437.35 -60.32,191.03 -132.38,407.2 -216.16,648.5 -84.14,241.48 -174.63,497.86 -271.47,769.14 -96.83,271.29 -195.79,539.4 -296.86,804.34 -100.54,264.58 -199.41,515.93 -296.6,754.06 -97.19,238.12 -182.56,440.97 -256.11,608.54 -26.46,60.33 -64.03,84.14 -110.6,70.64 -48.32,-14.64 -86.17,-52.49 -100.8,-100.81 -33.74,-187.11 -51.17,-377.32 -51.17,-567.53 0,-28.28 0.78,-57.72 1.16,-85.61 6.49,-208.2 27.11,-417.86 60.09,-623.41 33.49,-187.72 88.87,-429.12 166.13,-724.22 77.26,-295.1 167.66,-593.37 271.2,-894.82 95.77,-283.89 211.69,-564.1 341.3,-834.27 124.01,-254.86 246.25,-432.65 366.72,-533.36z"/>
  <path class="fil1" d="M6588.29 19842.4c-62.95,0 -137.79,-76.03 -223.32,-228.08 -85.52,-152.04 -169.86,-355.17 -251.82,-608.18 -83.15,-253.02 -154.43,-547.61 -215.01,-883.78 -60.58,-336.16 -95.03,-690.15 -100.97,-1064.32l-9.5 -332.61 -161.55 -19c-76.02,0 -215,9.5 -418.13,28.51 -203.12,19 -416.94,41.57 -641.45,66.52 -224.5,24.94 -437.13,52.26 -636.69,80.77 -199.56,28.51 -331.42,48.7 -394.37,61.77 -19.01,5.94 -41.58,26.13 -66.52,61.77 -24.95,34.45 -60.59,99.78 -104.54,193.62 -43.95,95.03 -103.34,231.64 -175.8,408.63 -72.46,176.99 -166.3,411 -280.34,702.03 -222.13,595.12 -400.31,1020.37 -536.91,1275.77 -136.61,256.58 -267.27,384.86 -394.38,384.86 -138.98,0 -257.76,-79.58 -356.36,-237.57 -98.59,-157.98 -169.86,-338.54 -213.81,-541.67 -19.01,-100.96 10.69,-277.96 90.28,-532.16 79.58,-253.02 180.55,-533.35 304.09,-839.82 123.54,-307.66 256.58,-616.5 399.12,-926.54 142.55,-311.22 267.27,-576.11 375.37,-798.24 399.12,-735.29 783.99,-1377.93 1154.61,-1929.1 370.61,-551.17 718.66,-1008.5 1045.32,-1371.99 326.66,-364.67 621.25,-637.88 884.96,-822 263.71,-184.12 487.02,-275.58 671.14,-275.58 228.07,0 337.36,152.04 327.86,457.32 -9.51,304.1 -96.22,784 -261.34,1437.32 -38.01,133.04 -74.83,296.97 -109.28,490.59 -34.45,193.62 -67.71,395.56 -99.78,604.63 -32.07,209.06 -58.21,419.31 -80.77,628.38 -22.57,209.06 -41.58,397.93 -57.02,566.61 -15.44,168.68 -24.95,305.28 -28.51,409.81 -3.56,104.54 4.75,160.37 23.76,166.31 114.03,0 250.64,5.93 408.62,19 157.99,11.88 310.04,33.26 456.14,64.15 146.11,30.88 267.27,68.89 365.87,115.22 98.59,46.33 141.35,108.09 128.29,184.12 0,32.07 -15.45,60.58 -47.52,85.52 -32.07,24.95 -53.45,43.96 -66.52,57.02 0,0 3.56,-3.56 9.5,-9.5 0,-13.07 -28.51,-34.45 -85.52,-66.52 -57.02,-32.07 -141.36,-62.96 -251.83,-95.03 -110.47,-32.07 -245.89,-58.21 -403.88,-80.78 -157.98,-21.38 -336.16,-29.69 -532.16,-23.75l19.01 400.31c19,488.21 77.21,932.47 175.8,1331.6 98.59,400.31 229.26,721.03 394.37,962.17 24.95,57.02 62.96,85.53 114.04,85.53 19,0 43.95,-3.57 76.02,-10.7 32.07,-7.12 57.02,-10.69 76.02,-10.69 62.96,0 81.97,34.45 57.02,103.35 -24.94,70.08 -72.46,133.04 -142.54,188.87 -70.09,57.02 -138.98,85.53 -209.07,85.53zm-1180.74 -3335.53c146.11,-13.07 245.89,-20.2 299.35,-23.76 53.45,-3.57 84.33,-14.26 90.27,-33.26 -13.06,-108.1 -14.25,-275.59 -4.75,-503.66 9.51,-228.07 23.76,-481.08 42.77,-760.23 19,-279.15 39.2,-565.43 61.76,-860.02 22.57,-294.59 41.58,-564.23 57.02,-807.75 15.44,-243.51 23.76,-445.45 23.76,-603.43 0,-157.99 -9.5,-237.58 -28.51,-237.58 -5.94,0 -51.08,57.02 -133.04,171.06 -81.96,114.03 -175.8,247.07 -280.34,399.12 -104.53,152.05 -207.87,308.84 -308.84,470.39 -100.97,161.55 -180.56,289.84 -237.58,384.87 -114.03,196 -247.07,428.82 -399.12,698.47 -152.05,269.64 -295.78,532.16 -432.38,788.74 -136.61,256.58 -256.58,485.84 -361.11,686.59 -104.54,201.94 -166.3,332.6 -185.31,392 -5.94,11.87 -10.69,22.56 -14.25,32.07 -3.57,8.31 8.31,13.06 33.26,13.06 -5.94,0 60.58,-9.5 199.56,-27.32 138.98,-17.81 307.65,-36.82 503.65,-58.2 196,-21.38 395.56,-42.77 598.69,-67.71 203.12,-23.76 361.11,-41.58 475.14,-53.45zm2584.8 -2017c-57.02,304.09 -109.29,621.25 -156.8,950.29 -47.52,329.04 -79.59,654.52 -95.03,974.05 -15.44,319.54 -9.5,627.2 19.01,921.79 28.5,294.59 93.84,561.86 194.81,802.99 32.07,76.03 71.27,119.98 118.78,133.05 47.52,13.06 77.21,19 90.28,19 62.96,0 91.47,27.32 85.53,80.78 -5.94,53.45 -43.95,86.71 -114.04,99.78 -222.13,32.07 -414.56,0 -579.68,-95.03 -165.11,-95.03 -300.53,-224.51 -408.62,-389.62 -127.11,-184.12 -222.13,-419.32 -285.09,-707.97 -62.96,-288.65 -100.97,-599.87 -114.04,-936.04 -13.06,-336.17 -3.56,-684.21 28.51,-1045.32 32.07,-361.11 77.21,-706.78 137.79,-1035.82 60.59,-329.04 134.23,-630.76 223.32,-902.78 89.09,-272.02 184.12,-494.15 285.09,-665.21 38.01,-62.95 72.46,-99.78 104.53,-109.28 32.08,-9.5 72.46,-8.32 123.54,4.75 43.95,13.07 95.03,39.2 152.05,80.78 57.02,41.57 112.85,90.27 166.3,147.29 53.45,57.02 100.97,118.79 142.54,185.31 41.58,66.52 71.28,131.85 90.28,194.81 19.01,62.96 27.32,122.35 23.76,175.8 -3.56,53.46 -14.26,124.73 -33.26,213.82 -19.01,89.09 -46.33,203.12 -80.78,342.1 -34.44,138.99 -74.83,326.67 -118.78,560.68zm1786.55 1370.8c0,13.06 -3.57,19 -9.5,19 -5.94,0 -20.2,5.94 -42.77,19.01 -22.57,13.06 -53.45,34.45 -95.03,66.52 -41.57,32.07 -96.21,79.59 -166.3,142.54 146.11,43.95 251.83,96.22 318.35,156.8 66.52,60.58 128.29,96.22 185.31,109.28 114.03,32.08 242.32,43.96 384.87,38.02 142.54,-5.94 281.52,-22.57 418.12,-47.52 136.61,-24.94 260.15,-61.77 370.62,-109.28 110.47,-47.52 185.31,-99.78 223.32,-156.8 43.95,-62.96 70.08,-80.78 76.02,-52.27 5.94,28.51 9.5,55.83 9.5,80.78 13.07,76.02 -29.69,146.11 -128.29,209.06 -98.59,62.96 -217.37,115.23 -356.36,156.8 -138.98,41.58 -281.52,71.27 -427.63,90.28 -146.1,19 -256.58,22.57 -332.6,9.5 -5.94,0 -4.75,14.26 4.75,42.77 9.5,28.5 17.82,61.76 23.76,99.78 57.02,133.04 79.59,308.84 66.52,527.41 -13.07,218.57 -58.21,426.44 -137.79,622.44 -79.59,196 -193.63,356.36 -342.11,479.9 -148.48,123.54 -327.85,156.8 -536.91,99.78 -146.11,-32.07 -305.29,-99.78 -479.9,-204.31 -174.62,-104.54 -314.79,-219.76 -422.88,-346.86 -62.96,-76.02 -117.6,-166.3 -161.55,-270.83 -43.95,-104.54 -71.27,-223.32 -80.78,-356.36 -9.5,-133.04 -1.19,-280.34 23.76,-441.89 24.94,-161.55 79.59,-337.35 161.55,-527.41 57.02,-138.98 127.1,-269.65 209.06,-389.62 81.97,-119.98 166.31,-223.32 251.83,-308.85 85.53,-85.53 169.87,-153.23 251.83,-204.31 81.96,-51.08 157.99,-76.03 228.07,-76.03 51.08,0 105.72,17.82 166.3,52.27 60.58,34.45 117.6,79.59 171.05,133.04 53.46,53.46 96.22,110.47 128.29,171.05 32.08,60.59 47.52,115.23 47.52,166.31zm-418.13 482.27c-51.08,114.04 -91.47,237.57 -123.54,370.61 -32.07,133.05 -58.2,264.9 -80.77,394.38 -22.57,129.47 -36.83,251.82 -42.77,365.86 -5.94,114.03 -9.5,209.06 -9.5,285.09 5.94,165.11 28.51,270.83 66.52,318.35 38.01,47.51 129.48,27.32 275.59,-61.77 127.1,-81.97 238.76,-203.13 337.35,-361.12 98.59,-157.98 171.05,-318.34 218.57,-479.89 47.51,-161.55 60.58,-307.66 38.01,-437.14 -22.57,-129.48 -86.72,-204.31 -194.81,-223.32 -38.01,-13.06 -74.84,-28.51 -109.29,-47.51 -34.44,-19.01 -86.71,-34.45 -156.79,-47.52l-218.57 -76.02zm5150.58 370.61c24.95,-51.07 55.83,-90.27 90.28,-118.78 34.45,-28.51 65.34,-43.95 90.28,-47.52 24.95,-3.56 39.2,9.51 42.76,38.01 3.57,28.51 -8.31,77.22 -33.26,147.3 -57.01,133.04 -117.6,264.89 -180.55,394.37 -62.96,129.48 -123.54,248.27 -180.56,356.36 -57.02,108.1 -110.47,200.75 -161.55,280.34 -51.08,79.59 -91.46,131.85 -123.54,156.8 -89.09,89.09 -199.56,127.1 -332.6,114.03 -133.04,-13.06 -256.58,-51.08 -370.61,-114.03 -157.99,-89.09 -319.54,-291.03 -484.65,-608.19 -38.01,-70.08 -70.09,-138.98 -95.03,-209.07 -24.95,-70.08 -38.01,-110.47 -38.01,-123.53 0,-38.02 -13.07,-62.96 -38.02,-76.03 -32.07,-19 -74.83,13.07 -128.29,95.03 -53.45,81.97 -110.47,191.25 -171.05,327.85 -60.58,136.61 -115.22,286.28 -166.3,451.39 -51.08,165.12 -89.09,319.54 -114.03,465.65 -38.02,241.13 -60.59,400.31 -66.53,479.89 -5.93,79.59 -38.01,122.36 -95.02,128.29 -196,32.08 -365.87,-29.69 -508.41,-185.3 -142.55,-155.61 -262.52,-351.61 -361.11,-589.18 -98.6,-237.58 -175.81,-489.41 -232.82,-755.49 -57.02,-266.08 -95.03,-500.09 -114.04,-703.22 -32.07,-329.03 -41.58,-679.45 -28.51,-1050.07 13.07,-370.61 46.33,-728.16 99.78,-1073.83 53.46,-345.67 128.29,-664.02 223.32,-955.05 95.03,-291.02 212.63,-528.6 351.61,-712.72 51.08,-57.01 119.97,-84.33 209.06,-80.77 89.09,3.56 177,24.94 266.09,66.52 89.09,41.58 169.86,95.03 242.32,161.55 72.46,66.52 118.79,134.23 137.79,204.31 13.07,57.02 15.45,110.47 9.51,161.55 -5.94,51.08 -19.01,105.72 -38.02,166.3 -19,60.59 -42.76,131.86 -71.27,213.82 -28.51,81.96 -61.77,180.56 -99.78,294.59 -62.96,209.07 -119.97,433.57 -171.05,674.71 -51.08,241.14 -86.72,508.41 -109.28,803 -22.57,294.59 -29.7,621.25 -23.76,978.8 5.94,357.55 34.45,755.48 85.52,1192.62 0,19 8.32,36.82 23.76,52.26 15.44,15.45 27.32,23.76 33.26,23.76 13.07,0 38.01,-53.45 76.03,-161.55 38.01,-108.09 81.96,-237.57 133.04,-389.62 76.02,-234.01 148.48,-416.94 218.56,-546.42 70.09,-129.48 137.8,-226.88 204.32,-289.84 66.52,-62.95 129.47,-100.97 190.06,-114.03 60.58,-13.07 122.35,-19.01 185.3,-19.01 81.97,0 146.11,32.07 190.06,95.03 43.95,62.96 114.04,193.62 209.07,389.62 43.95,95.03 98.59,191.25 161.55,289.84 62.95,98.59 123.53,185.31 180.55,261.33 57.02,76.03 109.29,136.61 156.8,180.56 47.51,43.95 80.78,60.58 99.78,47.51 70.09,-43.95 160.36,-128.29 270.83,-251.83 110.48,-123.53 229.26,-295.77 356.36,-517.91zm1881.59 47.52c-19.01,81.96 -62.96,200.75 -133.04,356.36 -70.09,155.61 -143.73,313.6 -223.32,475.15 -79.59,161.55 -157.99,312.4 -237.57,451.39 -79.59,138.98 -141.36,234 -185.31,285.08 -89.09,108.1 -199.56,157.99 -332.6,152.05 -133.04,-5.94 -285.09,-91.47 -456.14,-256.58 -165.12,-152.05 -283.9,-294.59 -356.36,-427.63 -72.46,-133.04 -103.35,-281.53 -90.28,-446.64 5.94,-95.03 32.07,-205.5 76.02,-332.6 43.95,-127.1 100.97,-253.02 171.05,-380.12 70.09,-127.1 146.11,-245.89 228.07,-356.36 81.97,-110.47 167.49,-200.75 256.58,-270.83 76.03,-62.96 147.3,-108.1 213.82,-133.04 66.52,-24.95 150.86,-22.57 251.83,9.5 70.08,19 134.23,72.46 194.81,161.55 60.58,89.09 90.28,174.62 90.28,256.58 0,70.08 -10.7,114.03 -33.26,133.04 -22.57,19.01 -52.27,3.56 -90.28,-47.52 -38.01,-51.07 -89.09,-58.2 -152.05,-23.75 -62.96,34.45 -128.29,93.84 -194.81,175.8 -66.52,81.96 -133.04,176.99 -199.56,285.09 -66.52,108.1 -123.54,212.63 -171.05,313.6 -47.52,100.97 -81.97,188.87 -104.54,261.33 -22.57,72.46 -23.75,112.84 -4.75,118.78 13.07,5.94 60.58,-33.26 142.55,-118.78 81.96,-85.53 176.99,-186.5 285.08,-304.1 108.1,-117.6 217.38,-238.76 327.86,-365.86 110.47,-127.1 198.37,-228.07 261.33,-304.09 70.08,-81.97 141.35,-160.37 213.81,-232.83 72.46,-72.46 128.29,-124.72 166.3,-156.79 51.08,-43.96 91.47,-62.96 123.54,-57.02 32.07,5.94 66.52,22.57 104.53,47.51 70.09,51.08 115.23,134.23 137.8,251.83 22.57,117.6 39.2,267.27 52.26,451.39 5.94,95.03 15.44,190.06 28.51,285.09 13.07,95.03 27.32,184.12 42.76,266.08 15.45,81.96 32.08,152.05 47.52,209.06 15.44,57.02 33.26,95.03 52.27,114.04 5.93,5.94 33.26,-28.51 80.77,-104.53 47.51,-76.03 104.53,-169.87 171.05,-280.34 66.52,-110.47 134.23,-226.88 204.32,-346.86 70.08,-119.97 129.47,-222.13 180.55,-304.09 43.95,-62.96 93.84,-79.59 147.3,-47.51 53.45,32.07 74.83,62.95 61.77,95.02 -32.08,76.03 -81.97,184.12 -152.05,323.1 -70.08,138.99 -143.73,275.59 -223.32,408.63 -79.59,133.04 -160.36,248.27 -242.32,346.86 -81.97,98.59 -146.11,147.29 -190.06,147.29 -138.98,5.94 -232.82,-27.32 -280.34,-99.78 -47.51,-72.46 -86.71,-156.8 -118.79,-251.83 -13.06,-43.95 -24.94,-84.33 -38.01,-118.78 -13.06,-34.45 -23.76,-76.03 -33.26,-123.54 -9.5,-47.51 -19,-109.28 -28.51,-185.31 -9.5,-76.02 -23.75,-176.99 -42.76,-304.09z"/>
 </g>
</svg>
